<svg width="640" height="560" viewBox="0 0 640 560" fill="none" xmlns="http://www.w3.org/2000/svg">
  <rect width="640" height="560" rx="60" fill="#FFF4F1"/>
  <rect x="72" y="84" width="496" height="120" rx="28" fill="#FFFFFF"/>
  <rect x="72" y="224" width="496" height="236" rx="36" fill="#FFFFFF"/>
  <rect x="100" y="118" width="180" height="16" rx="8" fill="#F2D8D2"/>
  <rect x="100" y="144" width="240" height="16" rx="8" fill="#FAD5D0"/>
  <rect x="100" y="274" width="200" height="18" rx="9" fill="#E2E8F0"/>
  <rect x="100" y="306" width="320" height="18" rx="9" fill="#CBD5F5"/>
  <rect x="100" y="338" width="260" height="18" rx="9" fill="#CBD5F5"/>
  <rect x="100" y="382" width="160" height="36" rx="18" fill="#FF6B57"/>
  <circle cx="488" cy="144" r="36" fill="#FFE0D8"/>
  <circle cx="520" cy="316" r="52" fill="#EAF6FF"/>
  <path d="M516 298C524 304 536 316 540 334" stroke="#6C63FF" stroke-width="6" stroke-linecap="round"/>
  <path d="M492 324C502 326 514 336 518 350" stroke="#6C63FF" stroke-width="6" stroke-linecap="round"/>
</svg>
